<svg xmlns="http://www.w3.org/2000/svg" viewBox="16 6 168 168" aria-hidden="true"><defs><clipPath id="b12"><path d="M14 210 Q18 154 100 146 Q182 154 186 210 Z"/></clipPath></defs><rect x="0" y="0" width="200" height="200" fill="#FFF1E6"/><g transform="translate(0 -18)"><path d="M14 210 Q18 154 100 146 Q182 154 186 210 Z" fill="#3E3A8C"/><g clip-path="url(#b12)"><rect x="0" y="160" width="200" height="9" fill="#E76F51"/><rect x="0" y="172" width="200" height="3" fill="#F6E7C8"/><rect x="0" y="178" width="200" height="9" fill="#E76F51"/><circle cx="40" cy="164.5" r="2.6" fill="#F6E7C8"/><circle cx="70" cy="164.5" r="2.6" fill="#F6E7C8"/><circle cx="100" cy="164.5" r="2.6" fill="#F6E7C8"/><circle cx="130" cy="164.5" r="2.6" fill="#F6E7C8"/><circle cx="160" cy="164.5" r="2.6" fill="#F6E7C8"/></g><path d="M100 146 Q134 154 152 210" fill="none" stroke="#322e70" stroke-width="3" stroke-linecap="round"/><rect x="89" y="136" width="22" height="16" rx="7" fill="#9c6a41"/><ellipse cx="73.5" cy="120" rx="5" ry="7" fill="#9c6a41"/><ellipse cx="126.5" cy="120" rx="5" ry="7" fill="#9c6a41"/><circle cx="73" cy="130" r="3" fill="#E2B04F"/><circle cx="127" cy="130" r="3" fill="#E2B04F"/><ellipse cx="100" cy="117" rx="26" ry="30" fill="#B57B4C"/><path d="M85 116 q5 -5 10 0 M105 116 q5 -5 10 0" stroke="#1B1B1B" stroke-width="2.6" fill="none" stroke-linecap="round"/><path d="M86 107 q4 -3 8 0 M106 107 q4 -3 8 0" stroke="#3B2414" stroke-width="2" fill="none" stroke-linecap="round"/><path d="M90 130 Q100 138 110 130" stroke="#3B2414" stroke-width="2.6" fill="none" stroke-linecap="round"/><ellipse cx="84" cy="125" rx="4" ry="2.5" fill="#eba063" opacity=".55"/><ellipse cx="116" cy="125" rx="4" ry="2.5" fill="#eba063" opacity=".55"/><path d="M74 113 Q70 85 100 84 Q130 85 126 113 Q121 97 100 96 Q79 97 74 113 Z" fill="#2A1A10"/><circle cx="100" cy="79" r="12" fill="#2A1A10"/></g></svg>