<svg xmlns="http://www.w3.org/2000/svg" viewBox="16 6 168 168" aria-hidden="true"><defs><clipPath id="b14"><path d="M14 210 Q18 154 100 146 Q182 154 186 210 Z"/></clipPath></defs><rect x="0" y="0" width="200" height="200" fill="#FDF2D8"/><g transform="translate(0 -18)"><path d="M14 210 Q18 154 100 146 Q182 154 186 210 Z" fill="#0F766E"/><g clip-path="url(#b14)"><rect x="0" y="160" width="200" height="9" fill="#132C4D"/><rect x="0" y="172" width="200" height="3" fill="#F2C14E"/><rect x="0" y="178" width="200" height="9" fill="#132C4D"/><path d="M40 160l7 4.5-7 4.5-7-4.5Z" fill="#F2C14E"/><path d="M70 160l7 4.5-7 4.5-7-4.5Z" fill="#F2C14E"/><path d="M100 160l7 4.5-7 4.5-7-4.5Z" fill="#F2C14E"/><path d="M130 160l7 4.5-7 4.5-7-4.5Z" fill="#F2C14E"/><path d="M160 160l7 4.5-7 4.5-7-4.5Z" fill="#F2C14E"/></g><path d="M100 146 Q134 154 152 210" fill="none" stroke="#0c5e58" stroke-width="3" stroke-linecap="round"/><rect x="89" y="136" width="22" height="16" rx="7" fill="#4f321c"/><ellipse cx="73.5" cy="120" rx="5" ry="7" fill="#4f321c"/><ellipse cx="126.5" cy="120" rx="5" ry="7" fill="#4f321c"/><circle cx="73" cy="130" r="3" fill="#E2B04F"/><circle cx="127" cy="130" r="3" fill="#E2B04F"/><ellipse cx="100" cy="117" rx="26" ry="30" fill="#5C3A21"/><ellipse cx="90" cy="115" rx="2.6" ry="3.2" fill="#1B1B1B"/><ellipse cx="110" cy="115" rx="2.6" ry="3.2" fill="#1B1B1B"/><path d="M86 107 q4 -3 8 0 M106 107 q4 -3 8 0" stroke="#3B2414" stroke-width="2" fill="none" stroke-linecap="round"/><path d="M90 130 Q100 138 110 130" stroke="#3B2414" stroke-width="2.6" fill="none" stroke-linecap="round"/><ellipse cx="84" cy="125" rx="4" ry="2.5" fill="#784b2b" opacity=".55"/><ellipse cx="116" cy="125" rx="4" ry="2.5" fill="#784b2b" opacity=".55"/><g fill="none" stroke="#1B1B1B" stroke-width="2"><circle cx="90" cy="115" r="7.5"/><circle cx="110" cy="115" r="7.5"/><path d="M97.5 115h5"/></g><g><path d="M71 112 Q66 76 100 72 Q134 76 129 112 Q118 97 100 96 Q82 97 71 112 Z" fill="#F2C14E"/><path d="M76 99 Q100 88 124 99" stroke="#bd973d" stroke-width="2.4" fill="none"/><ellipse cx="90" cy="70" rx="12" ry="7.5" transform="rotate(-28 90 70)" fill="#F2C14E"/><ellipse cx="110" cy="70" rx="12" ry="7.5" transform="rotate(28 110 70)" fill="#F2C14E"/><circle cx="100" cy="74" r="5.5" fill="#bd973d"/></g></g></svg>